<svg width="181" height="21" viewBox="0 0 181 21" fill="none" xmlns="http://www.w3.org/2000/svg">
<path d="M17.5781 10.4609C17.5781 9.89844 17.5078 9.47656 17.4375 9.01953H9.14062V12.0078H14.0625C13.8867 13.3086 12.5859 15.7695 9.14062 15.7695C6.15234 15.7695 3.72656 13.3086 3.72656 10.25C3.72656 5.36328 9.49219 3.11328 12.5859 6.10156L14.9766 3.81641C13.4648 2.41016 11.4609 1.53125 9.14062 1.53125C4.28906 1.53125 0.421875 5.43359 0.421875 10.25C0.421875 15.1016 4.28906 18.9688 9.14062 18.9688C14.168 18.9688 17.5781 15.4531 17.5781 10.4609Z" fill="#5A7184"/>
<path d="M54.1367 6.59375C54.8398 6.06641 55.4727 5.43359 55.9648 4.69531C55.332 4.97656 54.5938 5.1875 53.8555 5.25781C54.6289 4.80078 55.1914 4.09766 55.4727 3.21875C54.7695 3.64062 53.9609 3.95703 53.1523 4.13281C52.4492 3.39453 51.5 2.97266 50.4453 2.97266C48.4062 2.97266 46.7539 4.625 46.7539 6.66406C46.7539 6.94531 46.7891 7.22656 46.8594 7.50781C43.8008 7.33203 41.0586 5.85547 39.2305 3.64062C38.9141 4.16797 38.7383 4.80078 38.7383 5.50391C38.7383 6.76953 39.3711 7.89453 40.3906 8.5625C39.793 8.52734 39.1953 8.38672 38.7031 8.10547V8.14062C38.7031 9.93359 39.9688 11.4102 41.6562 11.7617C41.375 11.832 41.0234 11.9023 40.707 11.9023C40.4609 11.9023 40.25 11.8672 40.0039 11.832C40.4609 13.3086 41.832 14.3633 43.4492 14.3984C42.1836 15.3828 40.6016 15.9805 38.8789 15.9805C38.5625 15.9805 38.2812 15.9453 38 15.9102C39.6172 16.9648 41.5508 17.5625 43.6602 17.5625C50.4453 17.5625 54.1367 11.9727 54.1367 7.08594C54.1367 6.91016 54.1367 6.76953 54.1367 6.59375Z" fill="#5A7184"/>
<path d="M88 6.20703C85.75 6.20703 83.957 8.03516 83.957 10.25C83.957 12.5 85.75 14.293 88 14.293C90.2148 14.293 92.043 12.5 92.043 10.25C92.043 8.03516 90.2148 6.20703 88 6.20703ZM88 12.8867C86.5586 12.8867 85.3633 11.7266 85.3633 10.25C85.3633 8.80859 86.5234 7.64844 88 7.64844C89.4414 7.64844 90.6016 8.80859 90.6016 10.25C90.6016 11.7266 89.4414 12.8867 88 12.8867ZM93.1328 6.06641C93.1328 5.53906 92.7109 5.11719 92.1836 5.11719C91.6562 5.11719 91.2344 5.53906 91.2344 6.06641C91.2344 6.59375 91.6562 7.01562 92.1836 7.01562C92.7109 7.01562 93.1328 6.59375 93.1328 6.06641ZM95.8047 7.01562C95.7344 5.75 95.4531 4.625 94.5391 3.71094C93.625 2.79688 92.5 2.51562 91.2344 2.44531C89.9336 2.375 86.0312 2.375 84.7305 2.44531C83.4648 2.51562 82.375 2.79688 81.4258 3.71094C80.5117 4.625 80.2305 5.75 80.1602 7.01562C80.0898 8.31641 80.0898 12.2188 80.1602 13.5195C80.2305 14.7852 80.5117 15.875 81.4258 16.8242C82.375 17.7383 83.4648 18.0195 84.7305 18.0898C86.0312 18.1602 89.9336 18.1602 91.2344 18.0898C92.5 18.0195 93.625 17.7383 94.5391 16.8242C95.4531 15.875 95.7344 14.7852 95.8047 13.5195C95.875 12.2188 95.875 8.31641 95.8047 7.01562ZM94.1172 14.8906C93.8711 15.5938 93.3086 16.1211 92.6406 16.4023C91.5859 16.8242 89.125 16.7188 88 16.7188C86.8398 16.7188 84.3789 16.8242 83.3594 16.4023C82.6562 16.1211 82.1289 15.5938 81.8477 14.8906C81.4258 13.8711 81.5312 11.4102 81.5312 10.25C81.5312 9.125 81.4258 6.66406 81.8477 5.60938C82.1289 4.94141 82.6562 4.41406 83.3594 4.13281C84.3789 3.71094 86.8398 3.81641 88 3.81641C89.125 3.81641 91.5859 3.71094 92.6406 4.13281C93.3086 4.37891 93.8359 4.94141 94.1172 5.60938C94.5391 6.66406 94.4336 9.125 94.4336 10.25C94.4336 11.4102 94.5391 13.8711 94.1172 14.8906Z" fill="#5A7184"/>
<path d="M134.75 2.375H121.215C120.617 2.375 120.125 2.90234 120.125 3.53516V17C120.125 17.6328 120.617 18.125 121.215 18.125H134.75C135.348 18.125 135.875 17.6328 135.875 17V3.53516C135.875 2.90234 135.348 2.375 134.75 2.375ZM124.871 15.875H122.551V8.38672H124.871V15.875ZM123.711 7.33203C122.938 7.33203 122.34 6.73438 122.34 5.99609C122.34 5.25781 122.938 4.625 123.711 4.625C124.449 4.625 125.047 5.25781 125.047 5.99609C125.047 6.73438 124.449 7.33203 123.711 7.33203ZM133.625 15.875H131.27V12.2188C131.27 11.375 131.27 10.25 130.074 10.25C128.844 10.25 128.668 11.1992 128.668 12.1836V15.875H126.348V8.38672H128.562V9.40625H128.598C128.914 8.80859 129.688 8.17578 130.812 8.17578C133.168 8.17578 133.625 9.75781 133.625 11.7617V15.875Z" fill="#5A7184"/>
<path d="M179.676 5.64453C179.465 4.80078 178.797 4.13281 177.988 3.92188C176.477 3.5 170.5 3.5 170.5 3.5C170.5 3.5 164.488 3.5 162.977 3.92188C162.168 4.13281 161.5 4.80078 161.289 5.64453C160.867 7.12109 160.867 10.2852 160.867 10.2852C160.867 10.2852 160.867 13.4141 161.289 14.9258C161.5 15.7695 162.168 16.4023 162.977 16.6133C164.488 17 170.5 17 170.5 17C170.5 17 176.477 17 177.988 16.6133C178.797 16.4023 179.465 15.7695 179.676 14.9258C180.098 13.4141 180.098 10.2852 180.098 10.2852C180.098 10.2852 180.098 7.12109 179.676 5.64453ZM168.531 13.1328V7.4375L173.523 10.2852L168.531 13.1328Z" fill="#5A7184"/>
</svg>
