<svg width="56" height="57" viewBox="0 0 56 57" fill="none" xmlns="http://www.w3.org/2000/svg">
<path opacity="0.2" fill-rule="evenodd" clip-rule="evenodd" d="M28 56.3843C43.464 56.3843 56 43.8466 56 28.3806C56 12.9146 43.464 0.376953 28 0.376953C12.536 0.376953 0 12.9146 0 28.3806C0 43.8466 12.536 56.3843 28 56.3843Z" fill="#FF7132"/>
<path d="M21 18H35C35.2652 18 35.5196 18.1054 35.7071 18.2929C35.8946 18.4804 36 18.7348 36 19V38.143C36.0001 38.2324 35.9763 38.3202 35.9309 38.3973C35.8855 38.4743 35.8204 38.5378 35.7421 38.5811C35.6639 38.6244 35.5755 38.6459 35.4861 38.6434C35.3968 38.641 35.3097 38.6146 35.234 38.567L28 34.03L20.766 38.566C20.6904 38.6135 20.6034 38.6399 20.5141 38.6424C20.4248 38.6449 20.3365 38.6235 20.2583 38.5803C20.1801 38.5371 20.1149 38.4738 20.0695 38.3969C20.0241 38.32 20.0001 38.2323 20 38.143V19C20 18.7348 20.1054 18.4804 20.2929 18.2929C20.4804 18.1054 20.7348 18 21 18Z" fill="#FF7132"/>
</svg>
