<svg width="56" height="57" viewBox="0 0 56 57" fill="none" xmlns="http://www.w3.org/2000/svg">
<path opacity="0.2" fill-rule="evenodd" clip-rule="evenodd" d="M28 56.3472C43.464 56.3472 56 43.8095 56 28.3435C56 12.8775 43.464 0.339844 28 0.339844C12.536 0.339844 0 12.8775 0 28.3435C0 43.8095 12.536 56.3472 28 56.3472Z" fill="#FF7132"/>
<path d="M25 20V19C25 18.7348 25.1054 18.4804 25.2929 18.2929C25.4804 18.1054 25.7348 18 26 18H30C30.2652 18 30.5196 18.1054 30.7071 18.2929C30.8946 18.4804 31 18.7348 31 19V20H34C34.2652 20 34.5196 20.1054 34.7071 20.2929C34.8946 20.4804 35 20.7348 35 21V37C35 37.2652 34.8946 37.5196 34.7071 37.7071C34.5196 37.8946 34.2652 38 34 38H22C21.7348 38 21.4804 37.8946 21.2929 37.7071C21.1054 37.5196 21 37.2652 21 37V21C21 20.7348 21.1054 20.4804 21.2929 20.2929C21.4804 20.1054 21.7348 20 22 20H25ZM29 28V23L24 30H27V35L32 28H29Z" fill="#FF7132"/>
</svg>
