<svg width="56" height="57" viewBox="0 0 56 57" fill="none" xmlns="http://www.w3.org/2000/svg">
<path opacity="0.2" fill-rule="evenodd" clip-rule="evenodd" d="M28 56.3645C43.464 56.3645 56 43.8269 56 28.361C56 12.895 43.464 0.357422 28 0.357422C12.536 0.357422 0 12.895 0 28.361C0 43.8269 12.536 56.3645 28 56.3645Z" fill="#FF7132"/>
<g clip-path="url(#clip0_9_341)">
<path d="M36 34.666L36.4 35.199C36.4557 35.2733 36.4896 35.3616 36.498 35.4541C36.5063 35.5466 36.4887 35.6396 36.4472 35.7226C36.4057 35.8057 36.3419 35.8755 36.2629 35.9243C36.1839 35.9732 36.0929 35.999 36 35.999H20C19.9071 35.999 19.8161 35.9732 19.7371 35.9243C19.6581 35.8755 19.5943 35.8057 19.5528 35.7226C19.5113 35.6396 19.4937 35.5466 19.502 35.4541C19.5104 35.3616 19.5443 35.2733 19.6 35.199L20 34.666V25.999C20 23.8773 20.8429 21.8425 22.3431 20.3422C23.8434 18.8419 25.8783 17.999 28 17.999C30.1217 17.999 32.1566 18.8419 33.6569 20.3422C35.1571 21.8425 36 23.8773 36 25.999V34.666ZM25.5 36.999H30.5C30.5 37.6621 30.2366 38.2979 29.7678 38.7668C29.2989 39.2356 28.663 39.499 28 39.499C27.337 39.499 26.7011 39.2356 26.2322 38.7668C25.7634 38.2979 25.5 37.6621 25.5 36.999Z" fill="#FF7132"/>
</g>
<defs>
<clipPath id="clip0_9_341">
<rect width="24" height="24" fill="white" transform="translate(16 15.999)"/>
</clipPath>
</defs>
</svg>
