<svg width="92" height="22" viewBox="0 0 92 22" fill="none" xmlns="http://www.w3.org/2000/svg">
<path d="M13.3145 15.4492C13.3145 17.2539 12.6628 18.6758 11.3594 19.7148C10.0651 20.7539 8.26042 21.2734 5.94531 21.2734C3.8125 21.2734 1.92578 20.8724 0.285156 20.0703V16.1328C1.63411 16.7344 2.77344 17.1582 3.70312 17.4043C4.64193 17.6504 5.4987 17.7734 6.27344 17.7734C7.20312 17.7734 7.91406 17.5957 8.40625 17.2402C8.90755 16.8848 9.1582 16.3561 9.1582 15.6543C9.1582 15.2624 9.04883 14.916 8.83008 14.6152C8.61133 14.3053 8.28776 14.0091 7.85938 13.7266C7.4401 13.444 6.57878 12.9928 5.27539 12.373C4.05404 11.7988 3.13802 11.2474 2.52734 10.7188C1.91667 10.1901 1.42904 9.57487 1.06445 8.87305C0.69987 8.17122 0.517578 7.35091 0.517578 6.41211C0.517578 4.64388 1.11458 3.25391 2.30859 2.24219C3.51172 1.23047 5.17057 0.724609 7.28516 0.724609C8.32422 0.724609 9.31315 0.847656 10.252 1.09375C11.1999 1.33984 12.1888 1.6862 13.2188 2.13281L11.8516 5.42773C10.7852 4.99023 9.90104 4.6849 9.19922 4.51172C8.50651 4.33854 7.82292 4.25195 7.14844 4.25195C6.34635 4.25195 5.73112 4.4388 5.30273 4.8125C4.87435 5.1862 4.66016 5.67383 4.66016 6.27539C4.66016 6.64909 4.74674 6.97721 4.91992 7.25977C5.0931 7.5332 5.36654 7.80208 5.74023 8.06641C6.12305 8.32161 7.02083 8.78646 8.43359 9.46094C10.3021 10.3542 11.5827 11.252 12.2754 12.1543C12.9681 13.0475 13.3145 14.1458 13.3145 15.4492ZM22.9395 8.39453C22.0553 8.39453 21.3626 8.67708 20.8613 9.24219C20.36 9.79818 20.0729 10.5911 20 11.6211H25.8516C25.8333 10.5911 25.5645 9.79818 25.0449 9.24219C24.5254 8.67708 23.8236 8.39453 22.9395 8.39453ZM23.5273 21.2734C21.0664 21.2734 19.1432 20.5944 17.7578 19.2363C16.3724 17.8783 15.6797 15.9551 15.6797 13.4668C15.6797 10.9056 16.3177 8.92773 17.5938 7.5332C18.8789 6.12956 20.6517 5.42773 22.9121 5.42773C25.0723 5.42773 26.7539 6.04297 27.957 7.27344C29.1602 8.50391 29.7617 10.2038 29.7617 12.373V14.3965H19.9043C19.9499 15.5814 20.3008 16.5065 20.957 17.1719C21.6133 17.8372 22.5339 18.1699 23.7188 18.1699C24.6393 18.1699 25.5098 18.0742 26.3301 17.8828C27.1504 17.6914 28.0072 17.3861 28.9004 16.9668V20.1934C28.1712 20.5579 27.3919 20.8268 26.5625 21C25.7331 21.1823 24.7214 21.2734 23.5273 21.2734ZM39.3594 21.2734C34.6016 21.2734 32.2227 18.6621 32.2227 13.4395C32.2227 10.8418 32.8698 8.85938 34.1641 7.49219C35.4583 6.11589 37.3132 5.42773 39.7285 5.42773C41.4967 5.42773 43.0827 5.77409 44.4863 6.4668L43.2559 9.69336C42.5996 9.42904 41.9889 9.21484 41.4238 9.05078C40.8587 8.8776 40.2936 8.79102 39.7285 8.79102C37.5592 8.79102 36.4746 10.3314 36.4746 13.4121C36.4746 16.4017 37.5592 17.8965 39.7285 17.8965C40.5306 17.8965 41.2734 17.7917 41.957 17.582C42.6406 17.3633 43.3242 17.026 44.0078 16.5703V20.1387C43.3333 20.5671 42.6497 20.8633 41.957 21.0273C41.2734 21.1914 40.4076 21.2734 39.3594 21.2734ZM58.3906 21L57.8301 19.0449H57.6113C57.1647 19.7559 56.5312 20.3073 55.7109 20.6992C54.8906 21.082 53.9564 21.2734 52.9082 21.2734C51.1126 21.2734 49.7591 20.7949 48.8477 19.8379C47.9362 18.8717 47.4805 17.4863 47.4805 15.6816V5.71484H51.6504V14.6426C51.6504 15.7454 51.8464 16.5749 52.2383 17.1309C52.6302 17.6777 53.2546 17.9512 54.1113 17.9512C55.278 17.9512 56.1211 17.5638 56.6406 16.7891C57.1602 16.0052 57.4199 14.7109 57.4199 12.9062V5.71484H61.5898V21H58.3906ZM74.4961 5.42773C75.0612 5.42773 75.5306 5.46875 75.9043 5.55078L75.5898 9.46094C75.2526 9.36979 74.8424 9.32422 74.3594 9.32422C73.0286 9.32422 71.9896 9.66602 71.2422 10.3496C70.5039 11.0332 70.1348 11.9902 70.1348 13.2207V21H65.9648V5.71484H69.123L69.7383 8.28516H69.9434C70.4173 7.42839 71.0553 6.74023 71.8574 6.2207C72.6686 5.69206 73.5482 5.42773 74.4961 5.42773Z" fill="#444444"/>
<path d="M88.3867 21L87.5801 18.9219H87.4707C86.7689 19.806 86.0443 20.4212 85.2969 20.7676C84.5586 21.1048 83.5924 21.2734 82.3984 21.2734C80.931 21.2734 79.7734 20.8542 78.9258 20.0156C78.0872 19.1771 77.668 17.9831 77.668 16.4336C77.668 14.8112 78.2331 13.6172 79.3633 12.8516C80.5026 12.0768 82.2161 11.6484 84.5039 11.5664L87.1562 11.4844V10.8145C87.1562 9.26497 86.3633 8.49023 84.7773 8.49023C83.556 8.49023 82.1204 8.85938 80.4707 9.59766L79.0898 6.78125C80.849 5.86068 82.7995 5.40039 84.9414 5.40039C86.9922 5.40039 88.5645 5.84701 89.6582 6.74023C90.752 7.63346 91.2988 8.99154 91.2988 10.8145V21H88.3867ZM87.1562 13.918L85.543 13.9727C84.3307 14.0091 83.4284 14.2279 82.8359 14.6289C82.2435 15.0299 81.9473 15.6406 81.9473 16.4609C81.9473 17.6367 82.6217 18.2246 83.9707 18.2246C84.9368 18.2246 85.707 17.9466 86.2812 17.3906C86.8646 16.8346 87.1562 16.0964 87.1562 15.1758V13.918Z" fill="#FF7132"/>
</svg>
